#tb 0: 1/25
#media_type 0: video
#codec_id 0: rawvideo
#dimensions 0: 720x576
#sar 0: 16/15
0,          9,          9,        1,  1244160, 0x57c21e2b
0,         10,         10,        1,  1244160, 0x57152296
0,         11,         11,        1,  1244160, 0x0074598b
0,         12,         12,        1,  1244160, 0x44537bb8
0,         13,         13,        1,  1244160, 0x6f27ab9c
0,         14,         14,        1,  1244160, 0x1f195e10
0,         15,         15,        1,  1244160, 0xc5644298
0,         16,         16,        1,  1244160, 0x24c1230e
0,         17,         17,        1,  1244160, 0x2651b213
0,         18,         18,        1,  1244160, 0x88efe863
0,         19,         19,        1,  1244160, 0x8bf0ada1
0,         20,         20,        1,  1244160, 0x8b6c013a
0,         21,         21,        1,  1244160, 0x69ebc579
0,         22,         22,        1,  1244160, 0xa45d0f0c
0,         23,         23,        1,  1244160, 0x272162e4
0,         24,         24,        1,  1244160, 0x8c456817
0,         25,         25,        1,  1244160, 0x872c58ee
0,         26,         26,        1,  1244160, 0x9318cb95
0,         27,         27,        1,  1244160, 0xcaec95f1
0,         28,         28,        1,  1244160, 0x8b01a105
0,         29,         29,        1,  1244160, 0x956de85e
0,         30,         30,        1,  1244160, 0xa2998ab9
0,         31,         31,        1,  1244160, 0xa56b5621
0,         32,         32,        1,  1244160, 0x7bd6b161
0,         33,         33,        1,  1244160, 0xbcb75d7a
0,         34,         34,        1,  1244160, 0xe5e94727
0,         35,         35,        1,  1244160, 0xf3145c67
0,         36,         36,        1,  1244160, 0xcf63df5a
0,         37,         37,        1,  1244160, 0x77d08ec8
0,         38,         38,        1,  1244160, 0xc99d2eb2
